<svg xmlns="http://www.w3.org/2000/svg" width="9" height="8" viewBox="0 0 9 8" fill="#29303B">
  <path fill-rule="evenodd" clip-rule="evenodd" d="M1.85553 7.59863C2.08965 7.81933 2.46925 7.81933 2.70337 7.59863L6.05834 4.43554C6.07252 4.42443 6.0863 4.41259 6.09959 4.40002C6.27583 4.23388 6.31897 3.99022 6.22986 3.78564C6.20094 3.71838 6.15711 3.65539 6.0996 3.6007L1.85553 7.59863ZM6.09817 3.59863C6.09201 3.59277 6.08575 3.58715 6.0794 3.58166L2.7048 0.400015C2.47067 0.179316 2.09108 0.179316 1.85695 0.400022C1.62283 0.620727 1.62283 0.978638 1.85696 1.19934L4.82604 3.99865L1.85553 6.79931C1.6214 7.02001 1.62141 7.37792 1.85553 7.59863" fill="#29303B"/>
</svg>