<svg xmlns="http://www.w3.org/2000/svg" width="48" height="48" viewBox="0 0 48 48" fill="none">
  <path d="M24.0151 43.2028C32.7941 43.2028 39.911 34.5991 39.911 23.9858C39.911 13.3725 32.7941 4.76877 24.0151 4.76877C15.236 4.76877 8.11914 13.3725 8.11914 23.9858C8.11914 34.5991 15.236 43.2028 24.0151 43.2028Z" fill="#28303B"/>
  <path d="M28.6971 31.9054H24.7799V25.916H26.852C29.3216 25.916 30.6841 24.4684 30.6841 22.7085C30.6841 21.1756 29.4067 20.2957 28.47 20.1254C29.3499 19.8983 30.315 19.0751 30.315 17.7694C30.315 15.6972 28.6119 14.7605 26.7952 14.7605H22.1116V14.9592L23.3038 15.8959V19.5293H17.3145V19.728L18.5066 20.6647V29.521L17.3145 30.4577V30.6564H23.3038V32.0473L22.1116 32.984V33.1827H30.0596V30.1739H29.8609L28.6971 31.9054ZM24.7799 16.0946H26.6817C28.1294 16.0946 28.7538 16.861 28.7538 17.8261C28.7538 18.7912 27.9874 19.5577 26.5114 19.5577H24.7515V16.0946H24.7799ZM26.5398 20.835C27.9874 20.835 29.1796 21.4311 29.1796 22.6517C29.1796 23.8155 28.1577 24.5819 26.9939 24.5819H24.8082V23.2194V23.191V20.835H26.5398ZM19.9827 20.8634H23.3038V24.6103H19.9827V20.8634ZM19.9827 29.3791V25.916H23.3322V29.3791H19.9827Z" fill="white"/>
</svg>