<svg width="236" height="236" viewBox="0 0 236 236" fill="none" xmlns="http://www.w3.org/2000/svg">
<path d="M118 83.9869C127.124 83.9869 134.52 75.0454 134.52 64.0154C134.52 52.9855 127.124 44.0439 118 44.0439C108.877 44.0439 101.48 52.9855 101.48 64.0154C101.48 75.0454 108.877 83.9869 118 83.9869Z" fill="white"/>
<path d="M122.869 72.2459H118.798V65.9919H120.951C123.518 65.9919 124.934 64.4874 124.934 62.6584C124.934 61.0654 123.606 60.1509 122.633 59.9739C123.547 59.7379 124.55 58.8824 124.55 57.5254C124.55 55.3719 122.78 54.3984 120.892 54.3984H116.025V54.6049L117.264 55.5784V59.3544H111.039V59.5609L112.278 60.5344V69.7384L111.039 70.7119V70.9184H117.264V72.3639L116.025 73.3374V73.5439H124.285V70.4169H124.078L122.869 72.2459ZM118.798 55.7849H120.774C122.279 55.7849 122.928 56.5814 122.928 57.5844C122.928 58.5874 122.131 59.3839 120.597 59.3839H118.768V55.7849H118.798ZM120.627 60.7409C122.131 60.7409 123.37 61.3604 123.37 62.6289C123.37 63.8384 122.308 64.6349 121.099 64.6349H118.827V63.2189V63.1894V60.7409H120.627ZM113.812 60.7704H117.264V64.6644H113.812V60.7704ZM113.812 69.6204V66.0214H117.293V69.6204H113.812Z" fill="#29303B"/>
<path d="M60.918 173.343V163.814H67.9685V165.319H62.5995V167.797H67.3785V169.301H62.5995V171.868H68.0275V173.372H60.918V173.343Z" fill="white"/>
<path d="M71.9219 173.343V163.814H73.7214L76.6419 168.298L79.5329 163.814H81.3324V173.343H79.6509V166.499L76.6714 170.983H76.5829L73.6034 166.528V173.313H71.9219V173.343Z" fill="white"/>
<path d="M85.6387 173.343V163.814H89.3852C90.5062 163.814 91.3617 164.109 92.0107 164.67C92.6892 165.26 93.0137 166.027 93.0137 166.971V167C93.0137 168.033 92.6302 168.829 91.9222 169.39C91.2142 169.95 90.2997 170.245 89.2082 170.245H87.3202V173.313H85.6387V173.343ZM87.3202 168.8H89.2672C89.8867 168.8 90.3882 168.652 90.7717 168.328C91.1552 168.003 91.3322 167.62 91.3322 167.089V167.059C91.3322 166.499 91.1552 166.115 90.7717 165.791C90.4177 165.496 89.9162 165.348 89.2672 165.348H87.3202V168.8Z" fill="white"/>
<path d="M96.6133 173.343V163.814H98.2948V171.809H103.28V173.343H96.6133Z" fill="white"/>
<path d="M114.52 172.074C113.576 173.018 112.396 173.52 110.95 173.52C109.505 173.52 108.325 173.048 107.41 172.104C106.466 171.16 105.994 170.009 105.994 168.652V168.623C105.994 167.266 106.466 166.115 107.41 165.142C108.354 164.168 109.534 163.696 110.98 163.696C112.425 163.696 113.605 164.168 114.549 165.112C115.464 166.056 115.936 167.207 115.936 168.564V168.593C115.936 169.95 115.464 171.13 114.52 172.074ZM108.649 170.983C109.239 171.632 110.036 171.956 110.95 171.956C111.894 171.956 112.661 171.632 113.251 170.983C113.841 170.334 114.136 169.537 114.136 168.593V168.564C114.136 167.62 113.841 166.823 113.222 166.174C112.632 165.525 111.865 165.171 110.921 165.171C109.977 165.171 109.239 165.496 108.62 166.145C108.03 166.794 107.735 167.59 107.735 168.534V168.564C107.735 169.537 108.03 170.334 108.649 170.983Z" fill="white"/>
<path d="M121.866 173.343V169.596L118.09 163.844H120.066L122.721 168.062L125.435 163.844H127.353L123.577 169.567V173.343H121.866Z" fill="white"/>
<path d="M130.656 173.343V163.814H132.456L135.376 168.298L138.267 163.814H140.067V173.343H138.356V166.499L135.376 170.983H135.288L132.308 166.528V173.313H130.656V173.343Z" fill="white"/>
<path d="M144.373 173.343V163.814H151.424V165.319H146.055V167.797H150.834V169.301H146.055V171.868H151.483V173.372H144.373V173.343Z" fill="white"/>
<path d="M155.377 173.343V163.814H156.94L162.044 170.393V163.814H163.696V173.343H162.309L157.029 166.587V173.343H155.377Z" fill="white"/>
<path d="M170.363 173.343V165.378H167.354V163.814H175.083V165.378H172.044V173.343H170.363Z" fill="white"/>
<path d="M78.1758 191.81V182.281H79.8573V190.276H84.8428V191.81H78.1758Z" fill="white"/>
<path d="M87.6445 191.809L91.8335 182.222H93.3675L97.5565 191.809H95.7865L94.813 189.508H90.329L89.326 191.809H87.6445ZM90.9485 188.033H94.223L92.571 184.228L90.9485 188.033Z" fill="white"/>
<path d="M102.484 191.869L99.1797 182.281H100.979L103.251 189.332L105.581 182.252H106.997L109.328 189.332L111.599 182.281H113.369L110.065 191.869H108.62L106.26 185.025L103.929 191.869H102.484Z" fill="white"/>
<path d="M119.534 191.81V188.063L115.758 182.311H117.734L120.389 186.529L123.103 182.311H125.021L121.245 188.034V191.81H119.534Z" fill="white"/>
<path d="M128.355 191.81V182.281H135.406V183.786H130.037V186.264H134.816V187.768H130.037V190.335H135.465V191.839H128.355V191.81Z" fill="white"/>
<path d="M139.359 191.81V182.281H143.607C144.787 182.281 145.702 182.606 146.351 183.225C146.882 183.786 147.118 184.464 147.118 185.29V185.32C147.118 186.057 146.911 186.677 146.528 187.178C146.115 187.65 145.554 188.004 144.876 188.211L147.442 191.81H145.466L143.135 188.506H141.041V191.81H139.359ZM141.041 187.001H143.489C144.079 187.001 144.551 186.854 144.935 186.559C145.289 186.264 145.466 185.88 145.466 185.408V185.379C145.466 184.877 145.289 184.494 144.935 184.199C144.581 183.904 144.109 183.786 143.489 183.786H141.041V187.001Z" fill="white"/>
<path d="M154.433 191.928C152.929 191.928 151.601 191.426 150.48 190.394L151.483 189.214C152.427 190.04 153.46 190.453 154.492 190.453C155.023 190.453 155.407 190.335 155.731 190.128C156.026 189.922 156.174 189.627 156.174 189.273V189.243C156.174 188.889 156.026 188.624 155.731 188.388C155.466 188.181 154.876 187.975 154.02 187.768C153.46 187.621 153.017 187.503 152.693 187.355C152.309 187.208 151.985 187.031 151.69 186.824C151.424 186.618 151.188 186.352 151.07 186.028C150.952 185.703 150.864 185.349 150.864 184.936V184.907C150.864 184.081 151.159 183.432 151.778 182.93C152.368 182.399 153.135 182.163 154.109 182.163C155.407 182.163 156.557 182.547 157.56 183.343L156.675 184.612C155.79 183.963 154.935 183.638 154.079 183.638C153.607 183.638 153.224 183.756 152.929 183.963C152.663 184.169 152.516 184.435 152.516 184.759V184.789C152.516 185.172 152.663 185.438 152.988 185.644C153.283 185.851 153.873 186.057 154.787 186.264C155.82 186.5 156.587 186.854 157.088 187.267C157.59 187.68 157.826 188.299 157.826 189.037V189.066C157.826 189.951 157.531 190.63 156.882 191.161C156.262 191.692 155.436 191.928 154.433 191.928Z" fill="white"/>
<path d="M18.3789 139.034V137.087C19.7064 137.057 20.7979 136.939 21.5944 136.762C22.3909 136.585 23.0104 136.29 23.4234 135.907C23.8364 135.494 24.1314 134.904 24.2789 134.166C24.4264 133.429 24.5149 132.426 24.5149 131.246V107.41C24.5149 106.23 24.4559 105.256 24.3379 104.519C24.2199 103.781 23.9839 103.191 23.6299 102.778C23.2759 102.365 22.7744 102.07 22.0664 101.923C21.3879 101.775 20.5029 101.657 19.4114 101.598V99.6514H34.7219C39.3239 99.6514 42.8934 100.477 45.4599 102.1C48.0264 103.752 49.3244 106.023 49.3244 109.003C49.3244 111.245 48.6164 113.103 47.2004 114.519C45.7844 115.935 43.5424 117.115 40.4744 118.059V118.266C41.5364 118.384 42.4509 118.502 43.2474 118.62C44.0144 118.767 44.7224 118.915 45.3419 119.092C45.9614 119.298 46.5219 119.505 47.0529 119.8C47.5839 120.095 48.0854 120.39 48.6164 120.714C51.6549 122.868 53.1594 125.552 53.1594 128.797C53.1594 130.597 52.6579 132.278 51.6549 133.842C50.6519 135.405 49.2359 136.615 47.4364 137.5C46.8759 137.824 46.2564 138.06 45.6369 138.237C45.0469 138.414 44.3094 138.591 43.5129 138.709C42.6869 138.827 41.7429 138.916 40.6809 138.975C39.5894 139.034 38.3209 139.063 36.8459 139.063H18.3789V139.034ZM32.7454 117.027C33.7779 117.027 34.6924 116.997 35.4004 116.968C36.1084 116.938 36.7279 116.879 37.2294 116.791C37.7309 116.702 38.2029 116.584 38.5569 116.437C38.9404 116.289 39.3534 116.083 39.7664 115.817C40.8579 115.139 41.6249 114.313 42.0674 113.369C42.5394 112.425 42.7754 111.156 42.7754 109.652C42.7754 106.967 42.1264 105.02 40.7989 103.84C39.4714 102.66 37.4064 102.07 34.6334 102.07H30.6804C30.1199 102.07 29.8249 102.365 29.8249 102.926V117.056H32.7454V117.027ZM36.9344 136.821C43.1294 136.821 46.1974 134.166 46.1974 128.886C46.1974 125.021 44.6044 122.337 41.4479 120.803C40.8874 120.567 40.3564 120.36 39.8549 120.183C39.3239 120.006 38.7339 119.888 38.0554 119.8C37.3474 119.711 36.5509 119.652 35.6069 119.623C34.6629 119.593 33.5124 119.564 32.1554 119.564H29.8544V130.98C29.8544 133.045 30.4149 134.55 31.5064 135.464C32.5979 136.379 34.4269 136.821 36.9344 136.821Z" fill="white"/>
<path d="M67.0246 130.892C67.0246 132.308 67.0541 133.4 67.1131 134.226C67.2016 135.052 67.3491 135.671 67.6736 136.084C67.9391 136.527 68.3816 136.792 68.9126 136.94C69.4731 137.087 70.2401 137.176 71.2136 137.264V139.064H57.6141V137.264C58.6171 137.235 59.4136 137.146 59.9741 136.969C60.5346 136.822 61.0066 136.527 61.3016 136.114C61.6261 135.701 61.8326 135.111 61.8916 134.344C61.9801 133.577 62.0096 132.544 62.0096 131.246V125.258C62.0096 122.957 61.9801 121.128 61.9211 119.83C61.8621 118.532 61.6851 117.588 61.4196 116.968C61.1246 116.349 60.6821 115.995 60.0626 115.877C59.4431 115.759 58.5876 115.7 57.4961 115.7V113.9L66.4346 111.953L67.1426 118.296H67.3491C67.7916 117.263 68.3816 116.319 69.0011 115.464C69.6796 114.608 70.3876 113.9 71.1841 113.281C71.9511 112.691 72.7771 112.219 73.6326 111.865C74.4881 111.54 75.3436 111.363 76.2286 111.363C77.3201 111.363 78.1756 111.629 78.8246 112.16C79.4441 112.691 79.7686 113.399 79.7686 114.284C79.7686 115.11 79.5031 115.759 79.0016 116.201C78.4706 116.673 77.7626 116.88 76.7891 116.88C76.2286 116.88 75.7861 116.821 75.4321 116.673C75.0781 116.526 74.7241 116.378 74.4291 116.231C74.1341 116.083 73.8686 115.936 73.6031 115.788C73.3376 115.641 73.0426 115.582 72.7476 115.582C71.8331 115.582 70.9186 116.172 69.9746 117.352C69.0601 118.532 68.3521 120.007 67.8506 121.836C67.5851 122.809 67.3491 123.93 67.2016 125.169C67.0541 126.438 66.9656 127.736 66.9656 129.093V130.892H67.0246Z" fill="white"/>
<path d="M96.111 111.422C98.058 111.422 99.887 111.776 101.627 112.454C103.368 113.133 104.902 114.106 106.229 115.345C107.527 116.584 108.56 118.03 109.327 119.711C110.094 121.393 110.477 123.251 110.477 125.257C110.477 127.352 110.094 129.269 109.327 131.01C108.56 132.75 107.527 134.225 106.229 135.494C104.902 136.762 103.368 137.736 101.627 138.473C99.887 139.181 98.058 139.535 96.111 139.535C94.1935 139.535 92.394 139.181 90.683 138.503C88.9425 137.795 87.4675 136.821 86.1695 135.553C84.842 134.284 83.839 132.78 83.1015 131.039C82.364 129.269 81.9805 127.352 81.9805 125.287C81.9805 123.281 82.364 121.422 83.1015 119.711C83.839 118 84.8715 116.525 86.1695 115.316C87.4675 114.077 88.9425 113.133 90.683 112.454C92.3645 111.746 94.1935 111.422 96.111 111.422ZM96.111 113.87C94.8425 113.87 93.692 114.136 92.6595 114.696C91.627 115.257 90.742 116.024 90.0045 117.027C89.2965 118.03 88.7065 119.239 88.323 120.655C87.9395 122.071 87.733 123.635 87.733 125.346C87.733 127.116 87.9395 128.709 88.323 130.154C88.7065 131.57 89.2965 132.809 90.0045 133.812C90.742 134.815 91.627 135.582 92.63 136.143C93.6625 136.703 94.813 136.969 96.111 136.969C97.409 136.969 98.589 136.703 99.651 136.143C100.713 135.582 101.627 134.815 102.365 133.783C103.102 132.75 103.692 131.541 104.105 130.095C104.518 128.65 104.725 127.086 104.725 125.346C104.725 123.635 104.518 122.101 104.105 120.685C103.722 119.269 103.102 118.089 102.365 117.086C101.627 116.083 100.713 115.286 99.651 114.726C98.589 114.136 97.3795 113.87 96.111 113.87Z" fill="white"/>
<path d="M126.113 139.535H124.225L117.558 118.266C117.263 117.322 116.968 116.555 116.703 115.965C116.437 115.404 116.083 114.932 115.7 114.578C115.316 114.254 114.874 114.018 114.372 113.87C113.841 113.752 113.222 113.693 112.484 113.693V111.894H126.025V113.693C124.697 113.693 123.753 113.841 123.222 114.165C122.662 114.49 122.396 114.991 122.396 115.758C122.396 116.083 122.455 116.496 122.544 116.938C122.632 117.41 122.78 117.971 122.957 118.649L126.438 130.862H126.644L134.167 111.894H135.73L142.545 130.862H142.751L145.819 122.573C146.203 121.452 146.557 120.508 146.852 119.741C147.117 118.974 147.353 118.325 147.501 117.794C147.648 117.263 147.737 116.85 147.825 116.496C147.914 116.171 147.914 115.847 147.914 115.522C147.914 114.785 147.678 114.283 147.265 114.047C146.822 113.811 145.908 113.693 144.492 113.693V111.894H154.728V113.693C154.197 113.693 153.784 113.782 153.43 113.929C153.047 114.077 152.722 114.372 152.339 114.814C151.985 115.257 151.631 115.876 151.247 116.702C150.864 117.528 150.392 118.59 149.89 119.918L141.955 139.535H140.067L133.842 120.655H133.636L126.113 139.535Z" fill="white"/>
<path d="M166.529 131.01C166.529 132.396 166.558 133.517 166.617 134.314C166.676 135.11 166.853 135.73 167.148 136.143C167.443 136.585 167.856 136.851 168.446 136.998C169.007 137.146 169.774 137.234 170.777 137.323V139.063H157.354V137.323C158.328 137.264 159.065 137.146 159.626 136.998C160.186 136.851 160.629 136.585 160.924 136.172C161.248 135.789 161.425 135.199 161.514 134.432C161.602 133.694 161.632 132.662 161.632 131.364V124.579C161.632 120.508 161.543 118.059 161.337 117.174C161.248 116.732 161.101 116.378 160.953 116.083C160.806 115.788 160.57 115.581 160.275 115.434C159.95 115.286 159.567 115.168 159.095 115.109C158.623 115.05 158.003 115.021 157.266 115.021V113.369L165.437 111.422L166.057 116.466H166.263C167.561 114.873 169.095 113.634 170.836 112.749C172.576 111.864 174.464 111.422 176.5 111.422C178.063 111.422 179.509 111.658 180.807 112.189C182.105 112.69 183.078 113.398 183.757 114.283C184.347 115.08 184.76 116.083 184.996 117.322C185.232 118.59 185.35 120.272 185.35 122.455V131.01C185.35 132.396 185.409 133.517 185.468 134.314C185.556 135.11 185.733 135.73 186.028 136.143C186.294 136.585 186.736 136.851 187.267 136.998C187.828 137.146 188.595 137.234 189.509 137.323V139.063H176.264V137.323C177.208 137.293 177.975 137.205 178.535 137.028C179.096 136.88 179.538 136.585 179.833 136.172C180.099 135.789 180.305 135.169 180.394 134.402C180.482 133.635 180.541 132.632 180.541 131.364V124.608C180.541 122.661 180.453 121.039 180.217 119.711C180.01 118.384 179.686 117.292 179.214 116.496C178.771 115.67 178.152 115.08 177.414 114.726C176.677 114.372 175.762 114.195 174.7 114.195C173.166 114.195 171.78 114.578 170.482 115.404C169.213 116.201 168.21 117.292 167.502 118.708C167.325 119.062 167.178 119.387 167.06 119.682C166.942 119.977 166.853 120.331 166.794 120.744C166.706 121.157 166.676 121.629 166.647 122.16C166.588 122.691 166.588 123.369 166.588 124.195V131.01H166.529Z" fill="white"/>
<path d="M217.446 134.255C214.525 137.765 210.926 139.535 206.649 139.535C204.643 139.535 202.814 139.211 201.191 138.532C199.539 137.854 198.123 136.939 196.973 135.7C195.793 134.491 194.878 133.045 194.229 131.364C193.58 129.682 193.256 127.824 193.256 125.788C193.256 123.694 193.61 121.776 194.288 120.006C194.967 118.236 195.94 116.732 197.179 115.463C198.418 114.195 199.923 113.221 201.634 112.484C203.374 111.776 205.262 111.422 207.298 111.422C210.602 111.422 213.168 112.307 214.968 114.106C216.767 115.906 217.682 118.472 217.682 121.806C217.682 122.278 217.593 122.573 217.387 122.661C217.21 122.75 216.767 122.809 216.089 122.809H199.274C199.185 123.074 199.156 123.428 199.126 123.812C199.067 124.195 199.038 124.638 199.038 125.11C199.038 126.88 199.274 128.502 199.687 129.948C200.1 131.393 200.719 132.632 201.516 133.665C202.342 134.697 203.286 135.464 204.407 136.025C205.498 136.585 206.737 136.88 208.094 136.88C209.51 136.88 210.838 136.556 212.077 135.936C213.316 135.317 214.584 134.284 215.882 132.839L217.446 134.255ZM208.979 120.449C209.658 120.449 210.189 120.449 210.631 120.39C211.015 120.36 211.339 120.301 211.546 120.183C211.752 120.095 211.9 119.947 211.929 119.741C212.018 119.564 212.018 119.298 212.018 119.003C212.018 117.44 211.516 116.171 210.513 115.257C209.481 114.313 208.124 113.841 206.383 113.841C202.696 113.841 200.424 116.053 199.539 120.449H208.979Z" fill="white"/>
</svg>
