<svg xmlns="http://www.w3.org/2000/svg" width="36" height="29" viewBox="0 0 36 29" fill="none">
  <path d="M35.7 4.2C33.3 6.06666 31.4333 7.96666 30.1 9.9C28.8333 11.7667 28.2 13.5333 28.2 15.2C28.4667 15.0667 28.8 15 29.2 15C29.6667 14.9333 30.0667 14.9 30.4 14.9C31.9333 14.9 33.2 15.5333 34.2 16.8C35.2667 18 35.8 19.5 35.8 21.3C35.8 23.5 35.0667 25.3333 33.6 26.8C32.1333 28.2667 30.3 29 28.1 29C25.7667 29 23.9333 28.1667 22.6 26.5C21.2667 24.7667 20.6 22.4667 20.6 19.6C20.6 16.2 21.6333 12.8333 23.7 9.5C25.7667 6.16666 28.8 3 32.8 0L35.7 4.2ZM15.1 4.2C12.7 6.06666 10.8333 7.96666 9.5 9.9C8.23333 11.7667 7.6 13.5333 7.6 15.2C7.86667 15.0667 8.2 15 8.6 15C9.06667 14.9333 9.46667 14.9 9.8 14.9C11.3333 14.9 12.6 15.5333 13.6 16.8C14.6667 18 15.2 19.5 15.2 21.3C15.2 23.5 14.4667 25.3333 13 26.8C11.5333 28.2667 9.7 29 7.5 29C5.16667 29 3.33333 28.1667 2 26.5C0.66667 24.7667 0 22.4667 0 19.6C0 16.2 1.03333 12.8333 3.1 9.5C5.16667 6.16666 8.2 3 12.2 0L15.1 4.2Z" fill="white"/>
</svg>