<svg width="16" height="16" viewBox="0 0 16 16" fill="none" xmlns="http://www.w3.org/2000/svg">
<path fill-rule="evenodd" clip-rule="evenodd" d="M14.0319 1.89453H2.00629C1.72006 1.89453 1.47461 2.1393 1.47461 2.42556V14.3763C1.47461 14.7032 1.72006 14.9472 2.00629 14.9472H8.42804V10.0525H6.79223V8.01303H8.42804V6.38176C8.42804 4.70984 9.4914 3.85272 11.0049 3.85272C11.7413 3.85272 12.3545 3.93403 12.5184 3.93403V5.6881H11.4542C10.6371 5.6881 10.4324 6.0955 10.4324 6.66719V8.01303H12.4776L12.0683 10.0525H10.4324L10.4732 14.9472H13.9903C14.2773 14.9472 14.5228 14.7032 14.5228 14.417V2.42556C14.5636 2.1393 14.3181 1.89453 14.0319 1.89453Z" fill="white"/>
</svg>
