<svg width="16" height="16" viewBox="0 0 16 16" fill="none" xmlns="http://www.w3.org/2000/svg">
<path fill-rule="evenodd" clip-rule="evenodd" d="M7.97841 1.97168C9.76789 1.97168 9.99273 1.97926 10.695 2.01126C11.7662 2.0601 12.706 2.32284 13.4614 3.07736C14.2159 3.83273 14.4786 4.77336 14.5275 5.84452C14.5595 6.54684 14.567 6.77084 14.567 8.56031C14.567 10.3498 14.5595 10.5738 14.5275 11.2769C14.4786 12.3481 14.2159 13.2879 13.4614 14.0433C12.706 14.7978 11.7654 15.0605 10.695 15.1094C9.99273 15.1414 9.76789 15.1481 7.97841 15.1481C6.18894 15.1481 5.96494 15.1414 5.26178 15.1094C4.19147 15.0605 3.25084 14.7978 2.49547 14.0433C1.74094 13.2879 1.4782 12.3473 1.4302 11.2769C1.3982 10.5738 1.39062 10.3498 1.39062 8.56031C1.39062 6.77084 1.3982 6.54684 1.4302 5.84452C1.4782 4.77252 1.74094 3.83273 2.49547 3.07736C3.25084 2.32284 4.19147 2.0601 5.26178 2.01126C5.96494 1.97926 6.18894 1.97168 7.97841 1.97168ZM7.97841 3.15905C6.21926 3.15905 6.01126 3.16579 5.31652 3.19779C4.5662 3.23147 3.87062 3.38221 3.33505 3.91778C2.80031 4.45252 2.64957 5.1481 2.61589 5.89842C2.58389 6.59231 2.57715 6.80115 2.57715 8.56031C2.57715 10.3195 2.58389 10.5275 2.61589 11.2222C2.64957 11.9725 2.80031 12.6681 3.33505 13.2037C3.87062 13.7393 4.5662 13.8892 5.31652 13.9228C6.01126 13.9548 6.21926 13.9616 7.97841 13.9616C9.73757 13.9616 9.94641 13.9548 10.6403 13.9228C11.3906 13.8892 12.0862 13.7393 12.6218 13.2037C13.1565 12.6681 13.3073 11.9725 13.3409 11.2222C13.3729 10.5275 13.3797 10.3195 13.3797 8.56031C13.3797 6.80115 13.3729 6.59231 13.3409 5.89842C13.3073 5.1481 13.1565 4.45252 12.6218 3.91778C12.0862 3.38221 11.3906 3.23147 10.6403 3.19779C9.94641 3.16579 9.73757 3.15905 7.97841 3.15905ZM7.97841 10.7562C9.19105 10.7562 10.1738 9.77345 10.1738 8.56082C10.1738 7.34734 9.19105 6.36461 7.97841 6.36461C6.76662 6.36461 5.78305 7.34734 5.78305 8.56082C5.78305 9.77345 6.76578 10.7562 7.97841 10.7562ZM7.97841 5.17724C9.84705 5.17724 11.362 6.69218 11.362 8.56082C11.362 10.4286 9.84705 11.9436 7.97841 11.9436C6.10978 11.9436 4.59484 10.4286 4.59484 8.56082C4.59484 6.69218 6.10978 5.17724 7.97841 5.17724ZM11.4957 4.25294C11.9328 4.25294 12.2856 4.60663 12.2856 5.04284C12.2856 5.47989 11.9328 5.83442 11.4957 5.83442C11.0587 5.83442 10.705 5.47989 10.705 5.04284C10.705 4.60663 11.0587 4.25294 11.4957 4.25294Z" fill="white"/>
</svg>
