<svg width="16" height="16" viewBox="0 0 16 16" fill="none" xmlns="http://www.w3.org/2000/svg">
<path fill-rule="evenodd" clip-rule="evenodd" d="M13.5616 1.89453C14.0938 1.89453 14.5272 2.31588 14.5272 2.83566V14.0053C14.5272 14.5251 14.0938 14.9472 13.5616 14.9472H2.43737C1.90624 14.9472 1.47461 14.5251 1.47461 14.0053V2.83566C1.47461 2.31588 1.90624 1.89453 2.43737 1.89453H13.5616ZM3.31732 6.86503V13.0524H5.31612V6.86503H3.31732ZM4.31727 3.78927C3.67596 3.78927 3.15882 4.28888 3.15882 4.90439C3.15882 5.52007 3.67596 6.01967 4.31727 6.01967C4.95602 6.01967 5.47461 5.52007 5.47461 4.90439C5.47461 4.28888 4.95603 3.78927 4.31727 3.78927ZM6.52724 6.88956V13.0524H8.48294V10.0043C8.48294 9.20028 8.63839 8.42134 9.65723 8.42134C10.6621 8.42134 10.6746 9.34076 10.6746 10.0554V13.0524L12.6325 13.0524V9.67251C12.6325 8.01271 12.2661 6.73664 10.2836 6.73664C9.33097 6.73664 8.69207 7.24758 8.43101 7.73208H8.40417V6.88956H6.52724Z" fill="white"/>
<path fill-rule="evenodd" clip-rule="evenodd" d="M13.5616 1.89453C14.0938 1.89453 14.5272 2.31588 14.5272 2.83566V14.0053C14.5272 14.5251 14.0938 14.9472 13.5616 14.9472H2.43737C1.90624 14.9472 1.47461 14.5251 1.47461 14.0053V2.83566C1.47461 2.31588 1.90624 1.89453 2.43737 1.89453H13.5616ZM3.31732 6.86503V13.0524H5.31612V6.86503H3.31732ZM4.31727 3.78927C3.67596 3.78927 3.15882 4.28888 3.15882 4.90439C3.15882 5.52007 3.67596 6.01967 4.31727 6.01967C4.95602 6.01967 5.47461 5.52007 5.47461 4.90439C5.47461 4.28888 4.95603 3.78927 4.31727 3.78927ZM6.52724 6.88956V13.0524H8.48294V10.0043C8.48294 9.20028 8.63839 8.42134 9.65723 8.42134C10.6621 8.42134 10.6746 9.34076 10.6746 10.0554V13.0524L12.6325 13.0524V9.67251C12.6325 8.01271 12.2661 6.73664 10.2836 6.73664C9.33097 6.73664 8.69207 7.24758 8.43101 7.73208H8.40417V6.88956H6.52724Z" fill="white"/>
</svg>
