<svg width="16" height="16" viewBox="0 0 16 16" fill="none" xmlns="http://www.w3.org/2000/svg">
<path d="M12.6519 1.33398H3.34547C2.23345 1.33398 1.33203 2.23548 1.33203 3.34753V12.6538C1.33203 13.7659 2.23345 14.6673 3.34547 14.6673H12.6519C13.764 14.6673 14.6654 13.7658 14.6654 12.6538V3.34759C14.6654 2.23553 13.7639 1.33398 12.6519 1.33398Z" fill="white"/>
<path d="M4.32837 3.75721C5.16777 3.00603 6.15196 2.47749 7.65722 2.75075V7.58964C7.59271 7.82188 7.39918 7.87351 7.23147 7.74448L4.32837 3.75721ZM10.3359 5.5185C11.0103 5.93974 11.765 6.78171 11.9788 8.02166L8.73735 8.54651C8.55041 8.47541 8.40982 8.35807 8.42775 8.08198L10.3359 5.5185ZM8.8342 9.66912C8.62507 9.7161 8.51449 9.84178 8.56323 10.095L10.2027 12.8706C10.9318 12.536 11.6595 11.7552 11.9888 10.5982L8.8342 9.66912ZM7.1504 10.0562C7.36724 10.0281 7.56979 10.0239 7.63424 10.2497L7.73103 13.3466C6.66588 13.4255 5.77762 13.1504 5.17634 12.3014L7.1504 10.0562ZM6.7246 8.6239C6.87949 8.81007 6.96641 9.00594 6.76335 9.24328L3.78285 10.2885C3.43149 9.31824 3.46366 8.40704 3.78285 7.54005L6.7246 8.6239Z" fill="#29303B"/>
</svg>
